#N canvas 394 228 835 678 12;
#X msg 337 23 57 62 64 65 69;
#X obj 178 405 osc~;
#X obj 178 359 mtof;
#X floatatom 178 381 5 0 0 0 - - -;
#X obj 91 610 dac~;
#X msg 208 125 12;
#X obj 341 75 udp_zxy;
#X floatatom 205 78 5 0 0 0 - - -;
#X obj 428 74 bng 15 250 50 0 empty empty empty 17 7 0 10 -262144 -1
-1;
#X floatatom 341 129 5 0 0 0 - - -;
#X obj 341 201 expr ($f1+90)/$f2;
#X obj 149 125 int;
#X msg 98 223 57;
#X msg 141 226 62;
#X msg 186 227 64;
#X msg 229 228 65;
#X msg 272 228 69;
#X obj 151 170 sel 0 1 2 3 4;
#X msg 448 147 36;
#X obj 101 430 fd;
#X connect 1 0 19 0;
#X connect 2 0 3 0;
#X connect 3 0 1 0;
#X connect 5 0 17 0;
#X connect 6 2 9 0;
#X connect 7 0 11 0;
#X connect 8 0 10 0;
#X connect 8 0 18 0;
#X connect 9 0 10 0;
#X connect 10 0 7 0;
#X connect 11 0 17 0;
#X connect 12 0 2 0;
#X connect 13 0 2 0;
#X connect 14 0 2 0;
#X connect 15 0 2 0;
#X connect 16 0 2 0;
#X connect 17 0 12 0;
#X connect 17 1 13 0;
#X connect 17 2 14 0;
#X connect 17 3 15 0;
#X connect 17 4 16 0;
#X connect 18 0 10 1;
#X connect 19 0 4 0;
#X connect 19 0 4 1;
