#N canvas 459 261 450 300 12;
#X obj 294 22 udp_zxy;
#N canvas 759 302 450 300 panner 0;
#X obj 212 33 inlet control;
#X obj 213 68 / 4;
#X floatatom 211 95 5 0 0 0 - - -;
#X obj 211 118 + 0.75;
#X msg 211 142 \$1 10;
#X obj 211 166 line~;
#X obj 211 190 cos~;
#X obj 185 217 *~;
#X obj 185 252 outlet~ right;
#X msg 86 136 \$1 10;
#X obj 86 163 line~;
#X obj 86 190 cos~;
#X obj 49 212 *~;
#X obj 51 249 outlet~ left;
#X obj 46 25 inlet~ signal;
#X connect 0 0 1 0;
#X connect 1 0 2 0;
#X connect 2 0 3 0;
#X connect 3 0 4 0;
#X connect 4 0 5 0;
#X connect 5 0 6 0;
#X connect 6 0 7 1;
#X connect 7 0 8 0;
#X connect 9 0 10 0;
#X connect 10 0 11 0;
#X connect 11 0 12 1;
#X connect 12 0 13 0;
#X connect 14 0 7 0;
#X connect 14 0 12 0;
#X restore 150 178 pd panner;
#X obj 79 218 outlet~ left;
#X obj 223 213 outlet~ right;
#X obj 214 128 hsl 128 15 0 1 0 0 empty empty empty -2 -8 0 10 -262144
-1 -1 6040 1;
#X msg 181 95 0.5;
#X obj 183 69 loadbang;
#X obj 328 60 + 45;
#X obj 325 86 / 90;
#X obj 148 20 inlet~;
#X floatatom 233 196 5 0 0 0 - - -;
#X obj 263 172 expr min(max($f1 \, 0) \, 1);
#X connect 0 2 7 0;
#X connect 1 0 2 0;
#X connect 1 1 3 0;
#X connect 4 0 11 0;
#X connect 5 0 4 0;
#X connect 6 0 5 0;
#X connect 7 0 8 0;
#X connect 8 0 4 0;
#X connect 9 0 1 0;
#X connect 10 0 1 1;
#X connect 11 0 10 0;
