#N canvas 416 55 450 300 12;
#X obj 100 100 tgl 15 0 empty empty empty 17 7 0 10 -262144 -1 -1 1
1;
#X msg 103 65 color 1;
#X obj 174 66 delay 50;
#X msg 174 95 color 0;
#X obj 105 -16 r beat;
#X obj 107 8 sel \$1;
#X obj 49 143 spigot;
#X obj 67 63 bng 15 250 50 0 empty empty empty 17 7 0 10 -262144 -1
-1;
#X obj 106 34 t b b b;
#X obj 49 178 s vox_\$2;
#X connect 0 0 6 1;
#X connect 1 0 0 0;
#X connect 2 0 3 0;
#X connect 3 0 0 0;
#X connect 4 0 5 0;
#X connect 5 0 8 0;
#X connect 6 0 9 0;
#X connect 7 0 6 0;
#X connect 8 0 7 0;
#X connect 8 1 2 0;
#X connect 8 2 1 0;
#X coords 0 -1 1 1 15 15 2 100 100;
