#N canvas 323 277 935 695 12;
#X obj 315 218 i;
#X obj 354 219 + 1;
#X obj 398 218 % 16;
#X floatatom 315 255 5 0 0 0 - - -;
#X obj 190 194 tgl 15 0 empty empty empty 17 7 0 10 -262144 -1 -1 0
1;
#X obj 271 481 s beat;
#X floatatom 326 108 5 0 0 0 - - -;
#X floatatom 326 56 5 0 0 0 - - -;
#X obj 326 82 expr 60000/$f1;
#X obj 380 137 / 4;
#X obj 326 28 r tempo;
#X obj 50 434 bng 15 250 50 0 empty empty empty 17 7 0 10 -262144 -1
-1;
#X obj 50 460 i;
#X obj 81 463 + 1;
#X obj 120 460 % 16;
#X obj 47 547 pack 0 0;
#X obj 51 490 t a a;
#X obj 50 517 * 18;
#X msg 43 586 \; pd-sub01 obj \$1 10 box \$2 3;
#X obj 160 32 inlet;
#X msg 274 219 0;
#X obj 266 174 metro 200;
#X text 488 408 finish: trigger bang and stop;
#X obj 226 239 tgl 15 0 empty empty empty 17 7 0 10 -262144 -1 -1 0
1;
#X obj 224 33 inlet;
#X obj 224 72 bng 15 250 50 0 empty empty empty 17 7 0 10 -262144 -1
-1;
#X obj 160 110 tgl 15 0 empty empty empty 17 7 0 10 -262144 -1 -1 0
1;
#X obj 160 139 sel 1;
#X text 220 8 stop loop;
#X text 128 9 start loop;
#X obj 296 596 expr if ($f1==1 \, $f2 \, 1);
#X obj 435 409 delay;
#X obj 378 368 sel 15;
#X obj 378 338 spigot;
#X obj 435 442 bng 15 250 50 0 empty empty empty 17 7 0 10 -262144
-1 -1;
#X obj 435 472 outlet;
#X obj 512 511 s stop_signal;
#X obj 34 80 r stop_signal;
#X msg 226 285 set 0;
#X obj 193 341 tgl 15 0 empty empty empty 17 7 0 10 -262144 -1 -1 0
1;
#X floatatom 271 436 5 0 0 0 - - -;
#X obj 272 385 spigot;
#X obj 442 22 r end_drum&record;
#X obj 581 23 r end_record;
#X obj 511 472 spigot;
#X obj 568 382 tgl 15 0 empty empty empty 17 7 0 10 -262144 -1 -1 1
1;
#X obj 505 291 loadbang;
#X msg 506 323 set 1;
#X obj 473 258 delay 10;
#X msg 582 324 set 0;
#X connect 0 0 1 0;
#X connect 0 0 3 0;
#X connect 1 0 2 0;
#X connect 2 0 0 1;
#X connect 3 0 33 0;
#X connect 3 0 41 0;
#X connect 4 0 21 0;
#X connect 4 0 39 0;
#X connect 6 0 9 0;
#X connect 6 0 21 1;
#X connect 6 0 31 1;
#X connect 7 0 8 0;
#X connect 8 0 6 0;
#X connect 10 0 7 0;
#X connect 11 0 12 0;
#X connect 12 0 13 0;
#X connect 12 0 16 0;
#X connect 13 0 14 0;
#X connect 14 0 12 1;
#X connect 15 0 18 0;
#X connect 16 0 17 0;
#X connect 16 1 15 1;
#X connect 17 0 15 0;
#X connect 19 0 4 0;
#X connect 19 0 26 0;
#X connect 20 0 0 0;
#X connect 21 0 0 0;
#X connect 23 0 33 1;
#X connect 23 0 38 0;
#X connect 24 0 25 0;
#X connect 25 0 23 0;
#X connect 26 0 27 0;
#X connect 27 0 20 0;
#X connect 31 0 34 0;
#X connect 32 0 31 0;
#X connect 32 1 40 0;
#X connect 33 0 32 0;
#X connect 34 0 35 0;
#X connect 34 0 44 0;
#X connect 34 0 48 0;
#X connect 37 0 26 0;
#X connect 37 0 4 0;
#X connect 37 0 23 0;
#X connect 38 0 39 0;
#X connect 39 0 41 1;
#X connect 40 0 5 0;
#X connect 41 0 40 0;
#X connect 42 0 25 0;
#X connect 43 0 49 0;
#X connect 43 0 25 0;
#X connect 44 0 36 0;
#X connect 45 0 44 1;
#X connect 46 0 47 0;
#X connect 47 0 45 0;
#X connect 48 0 47 0;
#X connect 49 0 45 0;
