#N canvas 150 51 932 815 12;
#X obj 322 535 tabwrite~ audioData;
#X obj 41 427 env~;
#X msg 340 502 start;
#X obj 340 422 sel 1;
#X msg 405 500 stop;
#X obj 341 467 bng 15 250 50 0 empty empty empty 17 7 0 10 -262144
-1 -1;
#X obj 391 467 bng 15 250 50 0 empty empty empty 17 7 0 10 -262144
-1 -1;
#X obj 483 506 timer;
#X obj 547 433 t f f;
#X obj 544 475 expr 1000 / $f1;
#X obj 544 504 phasor~;
#X obj 621 391 bng 15 250 50 0 empty empty empty 17 7 0 10 -262144
-1 -1;
#X msg 623 503 0;
#X msg 510 387 0;
#X obj 545 543 *~;
#X obj 282 587 tabread4~ audioData;
#X obj 282 620 *~;
#X obj 282 747 dac~;
#X obj 42 482 vu 15 120 empty empty -1 -8 0 10 -66577 -1 1 0;
#X obj 41 452 - 90;
#X floatatom 120 327 5 0 10 0 - - -;
#X obj 340 390 tgl 15 0 empty empty empty 17 7 0 10 -262144 -1 -1 0
1;
#X floatatom 484 534 5 0 0 0 - - -;
#X obj 337 647 hsl 128 15 0 1 0 0 empty empty empty -2 -8 0 10 -262144
-1 -1 4400 1;
#X obj 578 542 * 44.1;
#N canvas 77 136 450 463 fm 0;
#X obj 56 299 osc~ 440;
#X obj 23 203 osc~ 4;
#X floatatom 167 173 5 0 0 0 - - -;
#X floatatom 27 173 5 0 0 0 - - -;
#X floatatom 94 173 5 0 0 0 - - -;
#X obj 28 69 inlet;
#X obj 93 68 inlet;
#X obj 167 66 inlet;
#X obj 56 328 outlet~;
#X obj 237 66 loadbang;
#X msg 220 104 2;
#X msg 274 104 500;
#X msg 328 105 200;
#X obj 55 229 *~;
#X obj 55 263 +~;
#X text 163 45 carrier;
#X text 14 45 mod freq;
#X text 83 46 mod depth;
#X connect 0 0 8 0;
#X connect 1 0 13 0;
#X connect 2 0 14 1;
#X connect 3 0 1 1;
#X connect 4 0 13 1;
#X connect 5 0 3 0;
#X connect 6 0 4 0;
#X connect 7 0 2 0;
#X connect 9 0 10 0;
#X connect 9 0 11 0;
#X connect 9 0 12 0;
#X connect 10 0 3 0;
#X connect 11 0 4 0;
#X connect 12 0 2 0;
#X connect 13 0 14 0;
#X connect 14 0 0 0;
#X restore 88 733 pd fm;
#X floatatom 64 682 5 0 0 0 - - -;
#X floatatom 114 683 5 0 0 0 - - -;
#X floatatom 158 680 5 0 0 0 - - -;
#X obj 170 498 *~ 1;
#X obj 26 325 midi_piano;
#X text 34 284 sound source;
#X text 505 366 stop looping;
#X text 336 367 start/end recording;
#X text 614 366 replay loop;
#X text 273 23 tempo;
#N canvas 53 536 450 300 drumpad 0;
#X obj 76 98 box 0 1;
#X obj 94 98 box 1 1;
#X obj 112 98 box 2 1;
#X obj 130 98 box 3 1;
#X obj 148 98 box 4 1;
#X obj 166 98 box 5 1;
#X obj 184 98 box 6 1;
#X obj 202 98 box 7 1;
#X obj 220 98 box 8 1;
#X obj 238 98 box 9 1;
#X obj 256 98 box 10 1;
#X obj 274 98 box 11 1;
#X obj 292 98 box 12 1;
#X obj 310 98 box 13 1;
#X obj 328 98 box 14 1;
#X obj 346 98 box 15 1;
#X obj 76 98 box 0 1;
#X text 3 96 bassdrum;
#X text 77 77 1;
#X text 148 78 2;
#X text 221 79 3;
#X text 293 77 4;
#X obj 76 128 box 0 2;
#X obj 94 128 box 1 2;
#X obj 112 128 box 2 2;
#X obj 130 128 box 3 2;
#X obj 148 128 box 4 2;
#X obj 166 128 box 5 2;
#X obj 184 128 box 6 2;
#X obj 202 128 box 7 2;
#X obj 220 128 box 8 2;
#X obj 238 128 box 9 2;
#X obj 256 128 box 10 2;
#X obj 274 128 box 11 2;
#X obj 292 128 box 12 2;
#X obj 310 128 box 13 2;
#X obj 328 128 box 14 2;
#X obj 346 128 box 15 2;
#X text 4 124 snaredrum;
#X obj 76 160 box 0 3;
#X obj 94 160 box 1 3;
#X obj 112 160 box 2 3;
#X obj 130 160 box 3 3;
#X obj 148 160 box 4 3;
#X obj 166 160 box 5 3;
#X obj 184 160 box 6 3;
#X obj 202 160 box 7 3;
#X obj 220 160 box 8 3;
#X obj 238 160 box 9 3;
#X obj 256 160 box 10 3;
#X obj 274 160 box 11 3;
#X obj 292 160 box 12 3;
#X obj 310 160 box 13 3;
#X obj 328 160 box 14 3;
#X obj 346 160 box 15 3;
#X text 7 155 hihat;
#X text 75 30 four beats in a bar;
#X restore 935 21 pd drumpad;
#X obj 1075 36 bng 15 250 50 0 empty empty empty 17 7 0 10 -262144
-1 -1;
#X obj 1075 62 i;
#X obj 1106 65 + 1;
#X obj 1145 62 % 16;
#X obj 1072 149 pack 0 0;
#X obj 1076 92 t a a;
#X obj 1075 119 * 18;
#X floatatom 1026 92 5 0 0 0 - - -;
#X msg 1107 3 0;
#X msg 1068 188 \; pd-drumpad obj \$1 10 box \$2 3;
#N canvas 322 177 450 448 tmp_counter 0;
#X floatatom 212 64 5 0 0 0 - - -;
#X floatatom 212 113 5 0 0 0 - - -;
#X obj 212 90 expr 60000/$f1;
#X obj 82 214 i;
#X obj 121 215 + 1;
#X floatatom 82 248 5 0 0 0 - - -;
#X msg 22 215 0;
#X obj 21 72 inlet;
#X text 209 8 tempo;
#X obj 82 295 sel 0 4 8 12;
#X obj 228 356 outlet;
#X text 233 217 finish: trigger bang and stop;
#X obj 78 118 tgl 15 0 empty empty empty 17 7 0 10 -262144 -1 -1 0
1;
#X obj 82 181 metro 200;
#X obj 21 143 sel 1;
#X obj 83 358 s vox_3;
#X obj 158 357 s vox_1;
#X obj 213 300 sel 16;
#X obj 212 39 r tempo;
#X obj 212 140 / 2;
#X connect 0 0 2 0;
#X connect 1 0 19 0;
#X connect 2 0 1 0;
#X connect 3 0 4 0;
#X connect 3 0 5 0;
#X connect 4 0 3 1;
#X connect 5 0 9 0;
#X connect 5 0 17 0;
#X connect 6 0 3 0;
#X connect 7 0 12 0;
#X connect 7 0 14 0;
#X connect 9 0 15 0;
#X connect 9 1 15 0;
#X connect 9 2 15 0;
#X connect 9 3 16 0;
#X connect 12 0 13 0;
#X connect 13 0 3 0;
#X connect 14 0 6 0;
#X connect 17 0 10 0;
#X connect 17 0 12 0;
#X connect 18 0 0 0;
#X connect 19 0 13 1;
#X restore 187 158 pd tmp_counter;
#X obj 187 15 tgl 15 0 empty empty empty 17 7 0 10 -262144 -1 -1 1
1;
#X obj 242 51 s tempo;
#X obj 69 369 *~ 1;
#X obj 187 186 bng 15 250 50 0 empty empty empty 17 7 0 10 -262144
-1 -1;
#X obj 187 130 r counter_bang;
#X obj 187 86 s counter_bang;
#X obj 366 112 r drum_bang;
#X obj 337 333 r record_bang;
#X obj 366 224 s end_loop;
#X obj 450 286 r end_loop;
#X obj 212 281 r start_loop;
#X obj 208 224 s start_loop;
#X obj 460 172 bng 15 250 50 0 empty empty empty 17 7 0 10 -262144
-1 -1;
#X msg 241 24 61;
#X obj 277 704 balance_ctrl;
#X obj 522 336 r pause_play;
#X obj 187 -18 r record_with_temp;
#X obj 550 97 s end_record;
#X obj 791 69 r end_record;
#X obj 791 102 tgl 15 0 empty empty empty 17 7 0 10 -262144 -1 -1 0
1;
#X obj 657 335 r resume_play_from_start;
#X obj 438 618 r main_volumn;
#X text 71 127 tempo_counter;
#X text 389 77 drum;
#X floatatom 821 127 5 0 0 0 - - -;
#X obj 366 162 drumMachine;
#X obj 475 143 bng 15 250 50 0 empty empty empty 17 7 0 10 -262144
-1 -1;
#X msg 550 61 0;
#X msg 588 59 1;
#X obj 550 28 loadbang;
#X msg 95 225 \; drum_bang 1;
#X msg 581 181 \; drum_bang 0;
#X msg 730 463 \; drum_bang 0;
#X msg 727 422 \; drum_bang 1;
#X obj 214 428 r~ drum_sound;
#X obj 283 468 *~ 10;
#X connect 1 0 19 0;
#X connect 2 0 0 0;
#X connect 3 0 5 0;
#X connect 3 1 6 0;
#X connect 4 0 0 0;
#X connect 5 0 7 0;
#X connect 5 0 2 0;
#X connect 6 0 7 1;
#X connect 6 0 4 0;
#X connect 7 0 22 0;
#X connect 8 0 9 0;
#X connect 8 1 24 0;
#X connect 9 0 10 0;
#X connect 10 0 14 0;
#X connect 11 0 9 0;
#X connect 11 0 12 0;
#X connect 11 0 81 0;
#X connect 12 0 10 1;
#X connect 13 0 10 0;
#X connect 13 0 80 0;
#X connect 14 0 15 0;
#X connect 15 0 16 0;
#X connect 16 0 62 0;
#X connect 19 0 18 0;
#X connect 20 0 50 1;
#X connect 21 0 3 0;
#X connect 22 0 8 0;
#X connect 23 0 16 1;
#X connect 24 0 14 1;
#X connect 26 0 25 0;
#X connect 27 0 25 1;
#X connect 28 0 25 2;
#X connect 29 0 16 0;
#X connect 30 0 50 0;
#X connect 37 0 38 0;
#X connect 38 0 39 0;
#X connect 38 0 42 0;
#X connect 38 0 44 0;
#X connect 39 0 40 0;
#X connect 40 0 38 1;
#X connect 41 0 46 0;
#X connect 42 0 43 0;
#X connect 42 1 41 1;
#X connect 43 0 41 0;
#X connect 45 0 38 0;
#X connect 47 0 51 0;
#X connect 48 0 53 0;
#X connect 50 0 1 0;
#X connect 50 0 0 0;
#X connect 50 0 29 0;
#X connect 51 0 59 0;
#X connect 51 0 78 0;
#X connect 52 0 47 0;
#X connect 54 0 74 0;
#X connect 54 0 73 0;
#X connect 55 0 21 0;
#X connect 57 0 6 0;
#X connect 58 0 5 0;
#X connect 60 0 56 0;
#X connect 61 0 49 0;
#X connect 62 0 17 0;
#X connect 62 1 17 1;
#X connect 63 0 13 0;
#X connect 64 0 48 0;
#X connect 66 0 67 0;
#X connect 66 0 72 0;
#X connect 68 0 11 0;
#X connect 69 0 23 0;
#X connect 73 0 56 0;
#X connect 75 0 65 0;
#X connect 76 0 65 0;
#X connect 77 0 75 0;
#X connect 82 0 83 0;
#X connect 83 0 0 0;
#X coords 0 815 1 814 200 300 0;
