#N canvas 266 78 1174 695 12;
#X obj 87 279 clone vox 17;
#X msg 297 372 \; adsr_1 10 \; adsr_2 100 \; adsr_3 0.2 \; adsr_4 100
;
#X obj 104 61 notein;
#X floatatom 84 102 5 0 0 0 - - -;
#X floatatom 129 103 5 0 0 0 - - -;
#X floatatom 175 103 5 0 0 0 - - -;
#X obj 90 141 pack 0 0;
#X obj 88 184 poly 16 0;
#X obj 88 219 pack 0 0 0;
#X obj 87 348 *~;
#X obj 253 257 inlet;
#X text 251 227 volumn;
#X obj 313 259 loadbang;
#X msg 254 315 1;
#X obj 84 450 outlet~;
#X connect 0 0 9 0;
#X connect 2 0 3 0;
#X connect 2 1 4 0;
#X connect 2 2 5 0;
#X connect 3 0 6 0;
#X connect 4 0 6 1;
#X connect 6 0 7 0;
#X connect 7 0 8 0;
#X connect 7 1 8 1;
#X connect 7 2 8 2;
#X connect 8 0 0 0;
#X connect 9 0 14 0;
#X connect 10 0 9 1;
#X connect 12 0 1 0;
#X connect 12 0 13 0;
#X connect 13 0 9 1;
