#N canvas 187 465 450 300 12;
#X obj 43 123 osc~;
#N canvas 698 65 450 350 adsr 0;
#X obj 137 95 delay;
#X obj 47 -2 inlet;
#X obj 48 140 / 127;
#X obj 117 53 inlet;
#X obj 181 52 inlet;
#X obj 241 56 inlet;
#X obj 305 59 inlet;
#X obj 48 174 pack 0 0;
#X msg 48 209 \$1 \$2;
#X obj 49 261 line~;
#X obj 50 55 t b a;
#X obj 137 177 pack 0 0;
#X obj 160 121 *;
#X obj 137 146 f;
#X msg 137 207 \$1 \$2;
#X obj 47 30 sel 0;
#X msg 249 213 0 \$1;
#X obj 251 164 i;
#X obj 49 299 outlet~;
#X connect 0 0 13 0;
#X connect 1 0 15 0;
#X connect 2 0 7 0;
#X connect 2 0 12 0;
#X connect 3 0 7 1;
#X connect 3 0 0 1;
#X connect 4 0 11 1;
#X connect 5 0 12 1;
#X connect 6 0 17 1;
#X connect 7 0 8 0;
#X connect 8 0 9 0;
#X connect 9 0 18 0;
#X connect 10 0 0 0;
#X connect 10 1 2 0;
#X connect 11 0 14 0;
#X connect 12 0 13 1;
#X connect 13 0 11 0;
#X connect 14 0 9 0;
#X connect 15 0 17 0;
#X connect 15 1 10 0;
#X connect 16 0 9 0;
#X connect 17 0 16 0;
#X restore 154 113 pd adsr;
#X floatatom 173 72 5 0 0 0 - adsr_1 -;
#X floatatom 219 71 5 0 0 0 - adsr_2 -;
#X floatatom 268 72 5 0 0 0 - adsr_3 -;
#X floatatom 316 72 5 0 0 0 - adsr_4 -;
#X obj 44 206 *~;
#X obj 43 94 mtof;
#X obj 43 66 unpack 0 0;
#X obj 43 31 inlet;
#X obj 41 276 outlet~;
#X text 183 166 todo:edit timbre;
#X obj 121 191 piano~;
#X obj 121 240 +~;
#X connect 0 0 6 0;
#X connect 1 0 6 1;
#X connect 2 0 1 1;
#X connect 3 0 1 2;
#X connect 4 0 1 3;
#X connect 5 0 1 4;
#X connect 7 0 0 0;
#X connect 8 0 7 0;
#X connect 8 1 1 0;
#X connect 9 0 8 0;
#X connect 9 0 12 0;
#X connect 12 0 13 0;
#X connect 12 1 13 1;
#X connect 13 0 10 0;
